<svg width="40" height="40" viewBox="0 0 40 40" fill="none" xmlns="http://www.w3.org/2000/svg">
<path d="M31.5793 31.5789C32.696 31.5789 33.7669 32.0226 34.5566 32.8122C35.3462 33.6018 35.7898 34.6728 35.7898 35.7895C35.7898 36.9062 35.3462 37.9771 34.5566 38.7668C33.7669 39.5564 32.696 40 31.5793 40C30.4625 40 29.3916 39.5564 28.6019 38.7668C27.8123 37.9771 27.3687 36.9062 27.3687 35.7895C27.3687 34.6728 27.8123 33.6018 28.6019 32.8122C29.3916 32.0226 30.4625 31.5789 31.5793 31.5789ZM31.5793 33.6842C31.0209 33.6842 30.4854 33.906 30.0906 34.3008C29.6958 34.6956 29.474 35.2311 29.474 35.7895C29.474 36.3478 29.6958 36.8833 30.0906 37.2781C30.4854 37.6729 31.0209 37.8947 31.5793 37.8947C32.1376 37.8947 32.6731 37.6729 33.0679 37.2781C33.4627 36.8833 33.6845 36.3478 33.6845 35.7895C33.6845 35.2311 33.4627 34.6956 33.0679 34.3008C32.6731 33.906 32.1376 33.6842 31.5793 33.6842ZM12.6317 31.5789C13.7484 31.5789 14.8194 32.0226 15.609 32.8122C16.3987 33.6018 16.8423 34.6728 16.8423 35.7895C16.8423 36.9062 16.3987 37.9771 15.609 38.7668C14.8194 39.5564 13.7484 40 12.6317 40C11.515 40 10.444 39.5564 9.65438 38.7668C8.86475 37.9771 8.42114 36.9062 8.42114 35.7895C8.42114 34.6728 8.86475 33.6018 9.65438 32.8122C10.444 32.0226 11.515 31.5789 12.6317 31.5789ZM12.6317 33.6842C12.0733 33.6842 11.5379 33.906 11.143 34.3008C10.7482 34.6956 10.5264 35.2311 10.5264 35.7895C10.5264 36.3478 10.7482 36.8833 11.143 37.2781C11.5379 37.6729 12.0733 37.8947 12.6317 37.8947C13.1901 37.8947 13.7255 37.6729 14.1204 37.2781C14.5152 36.8833 14.737 36.3478 14.737 35.7895C14.737 35.2311 14.5152 34.6956 14.1204 34.3008C13.7255 33.906 13.1901 33.6842 12.6317 33.6842ZM35.7898 6.31579H6.89059L12.2528 18.9474H29.474C29.8013 18.9479 30.1243 18.8716 30.4168 18.7246C30.7093 18.5776 30.9632 18.364 31.1582 18.1011L37.4741 9.68H37.4762C37.7096 9.36707 37.8515 8.99537 37.8859 8.60645C37.9203 8.21753 37.8458 7.82671 37.6709 7.47767C37.4959 7.12862 37.2273 6.83511 36.8951 6.62993C36.563 6.42475 36.1803 6.31598 35.7898 6.31579ZM29.474 21.0526H12.3496L10.7369 24.3368L10.5264 25.2632C10.5264 25.8215 10.7482 26.357 11.143 26.7518C11.5379 27.1466 12.0733 27.3684 12.6317 27.3684H35.7898V29.4737H12.6317C11.8986 29.474 11.1781 29.283 10.5414 28.9194C9.90482 28.5558 9.37417 28.0323 9.002 27.4007C8.62982 26.769 8.42901 26.0512 8.41945 25.3181C8.40988 24.585 8.59189 23.8622 8.94746 23.2211L10.4633 20.1179L2.81687 2.10526H0V0H4.21057L5.99795 4.21053H35.7898C36.5854 4.2106 37.3646 4.43605 38.0373 4.86075C38.71 5.28545 39.2486 5.89202 39.5907 6.61022C39.9328 7.32841 40.0645 8.12884 39.9705 8.91879C39.8764 9.70874 39.5605 10.4559 39.0593 11.0737L32.9245 19.2547C32.5367 19.8101 32.0204 20.2636 31.4196 20.5766C30.8189 20.8897 30.1514 21.0529 29.474 21.0526Z" fill="white"/>
</svg>
