<svg width="40" height="40" viewBox="0 0 40 40" fill="none" xmlns="http://www.w3.org/2000/svg">
<path d="M36.4583 39.5833C38.1812 39.5833 39.5833 38.1813 39.5833 36.4583V29.1667C39.5833 27.4438 38.1812 26.0417 36.4583 26.0417C34.0208 26.0417 31.625 25.6583 29.3333 24.9021C28.7855 24.7291 28.2011 24.7081 27.6423 24.8413C27.0835 24.9745 26.5713 25.2569 26.1604 25.6583L23.1604 28.6583C17.9752 25.8434 13.7167 21.5863 10.9 16.4021L13.875 13.4083C14.7333 12.6125 15.0417 11.4021 14.675 10.2375C13.9203 7.94229 13.5377 5.54111 13.5417 3.125C13.5417 1.40208 12.1396 0 10.4167 0H3.125C1.40208 0 0 1.40208 0 3.125C0 23.2292 16.3542 39.5833 36.4583 39.5833ZM3.125 2.08333H10.4167C10.6929 2.08333 10.9579 2.19308 11.1532 2.38843C11.3486 2.58378 11.4583 2.84873 11.4583 3.125C11.4583 5.78542 11.875 8.39792 12.6938 10.875C12.7539 11.0548 12.7609 11.248 12.714 11.4317C12.6671 11.6153 12.5682 11.7816 12.4292 11.9104L8.35417 16.0063C11.7646 22.7313 16.8021 27.7688 23.5583 31.2083L27.6187 27.1458C27.7573 27.0087 27.9305 26.9119 28.1199 26.8656C28.3092 26.8194 28.5076 26.8255 28.6937 26.8833C31.1854 27.7083 33.7979 28.125 36.4583 28.125C37.0312 28.125 37.5 28.5938 37.5 29.1667V36.4583C37.5 37.0313 37.0312 37.5 36.4583 37.5C17.5042 37.5 2.08333 22.0792 2.08333 3.125C2.08333 2.84873 2.19308 2.58378 2.38843 2.38843C2.58378 2.19308 2.84873 2.08333 3.125 2.08333Z" fill="white"/>
</svg>
