<svg width="38" height="42" viewBox="0 0 38 42" fill="none" xmlns="http://www.w3.org/2000/svg">
<path d="M31.25 37.5H6.25V34.5833C6.25 30.4167 14.5833 28.125 18.75 28.125C22.9167 28.125 31.25 30.4167 31.25 34.5833V37.5ZM18.75 12.5C20.4076 12.5 21.9973 13.1585 23.1694 14.3306C24.3415 15.5027 25 17.0924 25 18.75C25 20.4076 24.3415 21.9973 23.1694 23.1694C21.9973 24.3415 20.4076 25 18.75 25C17.0924 25 15.5027 24.3415 14.3306 23.1694C13.1585 21.9973 12.5 20.4076 12.5 18.75C12.5 17.0924 13.1585 15.5027 14.3306 14.3306C15.5027 13.1585 17.0924 12.5 18.75 12.5ZM18.75 4.16667C19.3025 4.16667 19.8324 4.38616 20.2231 4.77686C20.6138 5.16756 20.8333 5.69747 20.8333 6.25C20.8333 6.80254 20.6138 7.33244 20.2231 7.72314C19.8324 8.11384 19.3025 8.33333 18.75 8.33333C18.1975 8.33333 17.6676 8.11384 17.2769 7.72314C16.8862 7.33244 16.6667 6.80254 16.6667 6.25C16.6667 5.69747 16.8862 5.16756 17.2769 4.77686C17.6676 4.38616 18.1975 4.16667 18.75 4.16667ZM33.3333 4.16667H24.625C23.75 1.75 21.4583 0 18.75 0C16.0417 0 13.75 1.75 12.875 4.16667H4.16667C3.0616 4.16667 2.00179 4.60565 1.22039 5.38706C0.438987 6.16846 0 7.22827 0 8.33333V37.5C0 38.6051 0.438987 39.6649 1.22039 40.4463C2.00179 41.2277 3.0616 41.6667 4.16667 41.6667H33.3333C34.4384 41.6667 35.4982 41.2277 36.2796 40.4463C37.061 39.6649 37.5 38.6051 37.5 37.5V8.33333C37.5 7.22827 37.061 6.16846 36.2796 5.38706C35.4982 4.60565 34.4384 4.16667 33.3333 4.16667Z" fill="white"/>
</svg>
